<svg width="145" height="113" viewBox="0 0 145 113" version="1.1" xmlns="http://www.w3.org/2000/svg" xmlns:xlink="http://www.w3.org/1999/xlink" xmlns:figma="http://www.figma.com/figma/ns">
<title>Frame</title>
<desc>Created using Figma</desc>
<g id="Canvas" transform="translate(75 157)" figma:type="canvas">
<mask id="mask0_alpha" mask-type="alpha">
<path d="M -75 -157L 70 -157L 70 -44L -75 -44L -75 -157Z" fill="#FFFFFF"/>
</mask>
<g id="Frame" mask="url(#mask0_alpha)" figma:type="frame">
<g id="Rectangle 2" figma:type="rounded-rectangle">
<use xlink:href="#path0_fill" transform="translate(-48 -145)" fill="#0E9F5D"/>
</g>
<g id="Rectangle 3" figma:type="rounded-rectangle">
<use xlink:href="#path1_fill" transform="translate(-48 -93)" fill="#057545"/>
</g>
<g id="Rectangle 3" figma:type="rounded-rectangle">
<use xlink:href="#path1_fill" transform="translate(-48 -85)" fill="#057545"/>
</g>
<g id="Rectangle" figma:type="rounded-rectangle">
<use xlink:href="#path2_fill" transform="translate(-75 -69)" fill="#BE7D4D"/>
</g>
<g id="Rectangle 2" figma:type="rounded-rectangle">
<use xlink:href="#path3_fill" transform="translate(-18 -157)" fill="#FED049"/>
</g>
<g id="Rectangle 3" figma:type="rounded-rectangle">
<use xlink:href="#path1_fill" transform="translate(-18 -89)" fill="#E67E22"/>
</g>
<g id="Rectangle 3" figma:type="rounded-rectangle">
<use xlink:href="#path1_fill" transform="translate(-18 -81)" fill="#E67E22"/>
</g>
<g id="Rectangle 3" figma:type="rounded-rectangle">
<use xlink:href="#path1_fill" transform="translate(-18 -149)" fill="#E67E22"/>
</g>
<g id="Rectangle 3" figma:type="rounded-rectangle">
<use xlink:href="#path1_fill" transform="translate(-18 -141)" fill="#E67E22"/>
</g>
<g id="Rectangle 3" figma:type="rounded-rectangle">
<use xlink:href="#path1_fill" transform="translate(-48 -133)" fill="#057545"/>
</g>
<g id="Rectangle 3" figma:type="rounded-rectangle">
<use xlink:href="#path1_fill" transform="translate(-48 -125)" fill="#057545"/>
</g>
<g id="Rectangle 2" figma:type="rounded-rectangle">
<use xlink:href="#path0_fill" transform="translate(12 -145)" fill="#D72828"/>
</g>
<g id="Rectangle 3" figma:type="rounded-rectangle">
<use xlink:href="#path1_fill" transform="translate(12 -93)" fill="#A71A19"/>
</g>
<g id="Rectangle 3" figma:type="rounded-rectangle">
<use xlink:href="#path1_fill" transform="translate(12 -85)" fill="#A71A19"/>
</g>
<g id="Rectangle 3" figma:type="rounded-rectangle">
<use xlink:href="#path1_fill" transform="translate(12 -133)" fill="#A71A19"/>
</g>
<g id="Rectangle 3" figma:type="rounded-rectangle">
<use xlink:href="#path1_fill" transform="translate(12 -125)" fill="#A71A19"/>
</g>
</g>
</g>
<defs>
<path id="path0_fill" d="M 0 0L 30 0L 30 76L 0 76L 0 0Z"/>
<path id="path1_fill" d="M 0 0L 30 0L 30 4L 0 4L 0 0Z"/>
<path id="path2_fill" d="M 0 0L 145 0L 145 25L 0 25L 0 0Z"/>
<path id="path3_fill" d="M 0 0L 30 0L 30 88L 0 88L 0 0Z"/>
</defs>
</svg>
