<?xml version="1.0" encoding="UTF-8" standalone="no"?>
<!DOCTYPE svg PUBLIC "-//W3C//DTD SVG 1.1//EN"
 "http://www.w3.org/Graphics/SVG/1.1/DTD/svg11.dtd">
<!-- Generated by graphviz version 2.38.0 (20140413.2041)
 -->
<!-- Title: %3 Pages: 1 -->
<svg width="382pt" height="365pt"
 viewBox="0.00 0.00 382.00 365.00" xmlns="http://www.w3.org/2000/svg" xmlns:xlink="http://www.w3.org/1999/xlink">
<g id="graph0" class="graph" transform="scale(1 1) rotate(0) translate(4 361)">
<title>%3</title>
<polygon fill="white" stroke="none" points="-4,4 -4,-361 378,-361 378,4 -4,4"/>
<g id="clust2" class="cluster"><title>cluster_0</title>
<polygon fill="none" stroke="black" points="8,-8 8,-279 366,-279 366,-8 8,-8"/>
</g>
<!-- Request -->
<g id="node1" class="node"><title>Request</title>
<polygon fill="none" stroke="black" points="156.604,-357 95.3964,-357 95.3964,-321 156.604,-321 156.604,-357"/>
<text text-anchor="middle" x="126" y="-334.8" font-family="Times,serif" font-size="14.00">Request</text>
</g>
<!-- Library -->
<g id="node3" class="node"><title>Library</title>
<ellipse fill="none" stroke="black" cx="167" cy="-253" rx="36.7489" ry="18"/>
<text text-anchor="middle" x="167" y="-248.8" font-family="Times,serif" font-size="14.00">Library</text>
</g>
<!-- Request&#45;&gt;Library -->
<g id="edge1" class="edge"><title>Request&#45;&gt;Library</title>
<path fill="none" stroke="black" d="M133.688,-320.656C137.935,-311.232 143.378,-299.411 148.514,-289 150.003,-285.98 151.6,-282.834 153.208,-279.721"/>
<polygon fill="black" stroke="black" points="156.427,-281.12 157.972,-270.638 150.228,-277.869 156.427,-281.12"/>
<text text-anchor="middle" x="167.243" y="-291.8" font-family="Times,serif" font-size="14.00"> Query</text>
</g>
<!-- Response -->
<g id="node2" class="node"><title>Response</title>
<polygon fill="none" stroke="black" points="243.663,-357 174.337,-357 174.337,-321 243.663,-321 243.663,-357"/>
<text text-anchor="middle" x="209" y="-334.8" font-family="Times,serif" font-size="14.00">Response</text>
</g>
<!-- Library&#45;&gt;Response -->
<g id="edge2" class="edge"><title>Library&#45;&gt;Response</title>
<path fill="none" stroke="black" d="M176.898,-270.554C180.231,-276.325 183.89,-282.887 187,-289 190.604,-296.086 194.248,-303.886 197.505,-311.139"/>
<polygon fill="black" stroke="black" points="194.428,-312.836 201.666,-320.572 200.832,-310.01 194.428,-312.836"/>
<text text-anchor="middle" x="212.643" y="-291.8" font-family="Times,serif" font-size="14.00"> Books</text>
</g>
<!-- Oria -->
<g id="node4" class="node"><title>Oria</title>
<ellipse fill="lightgrey" stroke="black" cx="43" cy="-180" rx="27" ry="18"/>
<text text-anchor="middle" x="43" y="-175.8" font-family="Times,serif" font-size="14.00">Oria</text>
</g>
<!-- Library&#45;&gt;Oria -->
<g id="edge3" class="edge"><title>Library&#45;&gt;Oria</title>
<path fill="none" stroke="black" d="M143.967,-238.812C123.621,-227.162 93.8592,-210.121 71.9163,-197.557"/>
<polygon fill="black" stroke="black" points="73.4584,-194.407 63.0412,-192.475 69.9802,-200.481 73.4584,-194.407"/>
</g>
<!-- Nasjonalbiblioteket -->
<g id="node5" class="node"><title>Nasjonalbiblioteket</title>
<ellipse fill="lightgrey" stroke="black" cx="167" cy="-180" rx="79.2298" ry="18"/>
<text text-anchor="middle" x="167" y="-175.8" font-family="Times,serif" font-size="14.00">Nasjonalbiblioteket</text>
</g>
<!-- Library&#45;&gt;Nasjonalbiblioteket -->
<g id="edge4" class="edge"><title>Library&#45;&gt;Nasjonalbiblioteket</title>
<path fill="none" stroke="black" d="M167,-234.813C167,-226.789 167,-217.047 167,-208.069"/>
<polygon fill="black" stroke="black" points="170.5,-208.029 167,-198.029 163.5,-208.029 170.5,-208.029"/>
</g>
<!-- Wikipedia -->
<g id="node6" class="node"><title>Wikipedia</title>
<ellipse fill="lightgrey" stroke="black" cx="311" cy="-180" rx="46.681" ry="18"/>
<text text-anchor="middle" x="311" y="-175.8" font-family="Times,serif" font-size="14.00">Wikipedia</text>
</g>
<!-- Library&#45;&gt;Wikipedia -->
<g id="edge5" class="edge"><title>Library&#45;&gt;Wikipedia</title>
<path fill="none" stroke="black" d="M192.083,-239.633C214.761,-228.451 248.439,-211.846 274.171,-199.159"/>
<polygon fill="black" stroke="black" points="275.835,-202.24 283.257,-194.679 272.74,-195.962 275.835,-202.24"/>
</g>
<!-- Cache -->
<g id="node7" class="node"><title>Cache</title>
<ellipse fill="lightgrey" stroke="black" cx="167" cy="-107" rx="32.4063" ry="18"/>
<text text-anchor="middle" x="167" y="-102.8" font-family="Times,serif" font-size="14.00">Cache</text>
</g>
<!-- Oria&#45;&gt;Cache -->
<g id="edge6" class="edge"><title>Oria&#45;&gt;Cache</title>
<path fill="none" stroke="black" d="M62.9227,-167.593C82.6587,-156.292 113.165,-138.825 136.057,-125.718"/>
<polygon fill="black" stroke="black" points="138.098,-128.582 145.037,-120.576 134.619,-122.507 138.098,-128.582"/>
</g>
<!-- Nasjonalbiblioteket&#45;&gt;Cache -->
<g id="edge7" class="edge"><title>Nasjonalbiblioteket&#45;&gt;Cache</title>
<path fill="none" stroke="black" d="M167,-161.813C167,-153.789 167,-144.047 167,-135.069"/>
<polygon fill="black" stroke="black" points="170.5,-135.029 167,-125.029 163.5,-135.029 170.5,-135.029"/>
</g>
<!-- Wikipedia&#45;&gt;Cache -->
<g id="edge8" class="edge"><title>Wikipedia&#45;&gt;Cache</title>
<path fill="none" stroke="black" d="M283.235,-165.31C259.32,-153.519 224.775,-136.486 199.561,-124.054"/>
<polygon fill="black" stroke="black" points="200.913,-120.819 190.396,-119.536 197.818,-127.097 200.913,-120.819"/>
</g>
<!-- HTTPClient -->
<g id="node8" class="node"><title>HTTPClient</title>
<ellipse fill="lightgrey" stroke="black" cx="167" cy="-34" rx="53.6643" ry="18"/>
<text text-anchor="middle" x="167" y="-29.8" font-family="Times,serif" font-size="14.00">HTTPClient</text>
</g>
<!-- Cache&#45;&gt;HTTPClient -->
<g id="edge9" class="edge"><title>Cache&#45;&gt;HTTPClient</title>
<path fill="none" stroke="black" d="M167,-88.8129C167,-80.7895 167,-71.0475 167,-62.0691"/>
<polygon fill="black" stroke="black" points="170.5,-62.0288 167,-52.0288 163.5,-62.0289 170.5,-62.0288"/>
</g>
</g>
</svg>
